<?xml version="1.0" encoding="utf-8"?>
<!-- Generator: Adobe Illustrator 28.0.0, SVG Export Plug-In . SVG Version: 6.00 Build 0)  -->
<svg version="1.1" id="_x32_" xmlns="http://www.w3.org/2000/svg" xmlns:xlink="http://www.w3.org/1999/xlink" x="0px" y="0px"
	 viewBox="0 0 800 800" style="enable-background:new 0 0 800 800;" xml:space="preserve">
<style type="text/css">
	.st0{fill:#FFFFFF;stroke:#000000;stroke-width:2;stroke-miterlimit:10;}
</style>
<g>
	<path class="st0" d="M502.6,367c-34.7,0-69.4,13.2-95.9,39.7c-52.9,52.9-52.9,138.7,0,191.7l191.7-191.7
		C571.9,380.2,537.2,367,502.6,367z M427.6,427.6c20-20,46.7-31.1,75-31.1c18.2,0,35.7,4.6,51.2,13.1L409.7,553.7
		C387.5,513.4,393.5,461.7,427.6,427.6z"/>
	<path class="st0" d="M211.7,87.2L87.2,211.7l228.2,228.2l124.5-124.5L211.7,87.2z M128.9,211.7l82.7-82.7l186.6,186.5l-82.8,82.8
		L128.9,211.7z"/>
	<path class="st0" d="M645.8,106.3L539.4,0L348.6,190.8L455,297.2L645.8,106.3z M510.4,202.4l-24.8-24.8l40.5-40.5l24.8,24.8
		L510.4,202.4z M606.4,106.3l-38,38l-24.8-24.8l38-38L606.4,106.3z M539.4,39.4l24.8,24.7l-38,38l-24.8-24.8L539.4,39.4z M484,94.8
		l24.7,24.7l-40.5,40.5l-24.8-24.8L484,94.8z M388,190.8l38-38l24.8,24.8l-38,38L388,190.8z M468.2,195l24.8,24.8l-38,38L430.2,233
		L468.2,195z"/>
	<path class="st0" d="M0,539.4l106.4,106.3l190.8-190.8L190.9,348.6L0,539.4z M135.4,443.4l24.8,24.8l-40.5,40.5l-24.8-24.8
		L135.4,443.4z M39.4,539.4l38-38l24.8,24.7l-38,38L39.4,539.4z M106.4,606.4l-24.8-24.7l38-38l24.7,24.7L106.4,606.4z M161.8,550.9
		l-24.8-24.8l40.5-40.5l24.8,24.8L161.8,550.9z M257.8,455l-37.9,38l-24.8-24.8l38-38L257.8,455z M177.6,450.7L152.8,426l38-38
		l24.7,24.8L177.6,450.7z"/>
	<path class="st0" d="M567.8,528.9c-10.7-10.7-28.1-10.7-38.8,0c-10.8,10.7-10.8,28.2,0,38.9c10.8,10.7,28.1,10.7,38.9,0
		C578.6,557.1,578.6,539.7,567.8,528.9z"/>
	<path class="st0" d="M771.4,591.6c-8.3,43.1-29,84.2-62.2,117.5c-33.3,33.3-74.4,54-117.5,62.3l5.5,28.6
		c48.6-9.3,95-32.8,132.6-70.3c37.5-37.5,60.9-84,70.3-132.6L771.4,591.6z"/>
	<path class="st0" d="M728.8,581.7l-28.7-5.2c-5.4,29.8-19.5,58.2-42.5,81.2c-23,23-51.4,37.1-81.2,42.5l5.3,28.6
		c35.3-6.4,69.2-23.3,96.5-50.6C705.5,651,722.4,617,728.8,581.7z"/>
	<path class="st0" d="M626.8,626.7c17.1-17.1,27.3-38.5,30.9-60.7l-28.7-4.6c-2.7,16.5-10.1,32.1-22.7,44.7v0
		c-12.6,12.6-28.2,20.1-44.7,22.7l4.6,28.7C588.3,654.1,609.7,643.8,626.8,626.7L626.8,626.7z"/>
</g>
</svg>
